<svg width="42" height="42" viewBox="0 0 42 42" fill="none" xmlns="http://www.w3.org/2000/svg">
<path d="M21 3.5C14.2275 3.5 8.75 8.9775 8.75 15.75C8.75 24.9375 21 38.5 21 38.5C21 38.5 33.25 24.9375 33.25 15.75C33.25 8.9775 27.7725 3.5 21 3.5ZM21 20.125C19.8397 20.125 18.7269 19.6641 17.9064 18.8436C17.0859 18.0231 16.625 16.9103 16.625 15.75C16.625 14.5897 17.0859 13.4769 17.9064 12.6564C18.7269 11.8359 19.8397 11.375 21 11.375C22.1603 11.375 23.2731 11.8359 24.0936 12.6564C24.9141 13.4769 25.375 14.5897 25.375 15.75C25.375 16.9103 24.9141 18.0231 24.0936 18.8436C23.2731 19.6641 22.1603 20.125 21 20.125Z" fill="#F8F8F8"/>
</svg>
