<svg width="42" height="42" viewBox="0 0 42 42" fill="none" xmlns="http://www.w3.org/2000/svg">
<path d="M28 19.1626V13.9126H22.75V10.4126H28V5.1626H31.5V10.4126H36.75V13.9126H31.5V19.1626H28ZM34.9125 36.7501C31.15 36.7501 27.482 35.9188 23.9085 34.2563C20.335 32.5938 17.1704 30.3772 14.4148 27.6063C11.6591 24.8355 9.44242 21.6633 7.76475 18.0898C6.08708 14.5163 5.24883 10.8489 5.25 7.0876V6.16885C5.25 5.84801 5.27917 5.54176 5.3375 5.2501H15.575L17.1938 14.0438L12.2063 19.0751C13.4313 21.1751 14.9701 23.1438 16.8228 24.9813C18.6754 26.8188 20.7095 28.4084 22.925 29.7501L28 24.6751L36.75 26.4251V36.6626C36.4583 36.6918 36.1521 36.7139 35.8313 36.7291C35.5104 36.7443 35.2042 36.7513 34.9125 36.7501Z" fill="#F8F8F8"/>
</svg>
