<svg width="53" height="45" viewBox="0 0 53 45" fill="none" xmlns="http://www.w3.org/2000/svg">
<path d="M34.5933 35.9355H39.968V43.9975H34.5933V35.9355Z" stroke="#24D316" stroke-width="1.36815" stroke-miterlimit="10" stroke-linecap="round" stroke-linejoin="round"/>
<path d="M3.68848 26.5295H25.1866V43.997H3.68848V26.5295Z" stroke="#24D316" stroke-width="1.36815" stroke-miterlimit="10" stroke-linecap="round" stroke-linejoin="round"/>
<path d="M7.71973 30.5608H21.1552V43.9976H7.71973V30.5608Z" stroke="#24D316" stroke-width="1.36815" stroke-miterlimit="10" stroke-linecap="round" stroke-linejoin="round"/>
<path d="M7.71973 30.5608H21.1552V33.249H7.71973V30.5608Z" stroke="#24D316" stroke-width="1.36815" stroke-miterlimit="10" stroke-linecap="round" stroke-linejoin="round"/>
<path d="M7.71973 33.2493H21.1552V35.9362H7.71973V33.2493Z" stroke="#24D316" stroke-width="1.36815" stroke-miterlimit="10" stroke-linecap="round" stroke-linejoin="round"/>
<path d="M7.71973 35.9363H21.1552V38.6245H7.71973V35.9363Z" stroke="#24D316" stroke-width="1.36815" stroke-miterlimit="10" stroke-linecap="round" stroke-linejoin="round"/>
<path d="M7.71973 38.6248H21.1552V41.313H7.71973V38.6248Z" stroke="#24D316" stroke-width="1.36815" stroke-miterlimit="10" stroke-linecap="round" stroke-linejoin="round"/>
<path d="M7.71973 41.3132H21.1552V44.0001H7.71973V41.3132Z" stroke="#24D316" stroke-width="1.36815" stroke-miterlimit="10" stroke-linecap="round" stroke-linejoin="round"/>
<path d="M37.2817 17.1233L25.1879 21.5211V43.9977H49.375V21.5211L37.2817 17.1233Z" stroke="#24D316" stroke-width="1.36815" stroke-miterlimit="10" stroke-linecap="round" stroke-linejoin="round"/>
<path d="M22.5006 22.497L37.2816 17.1232L52.0613 22.497V19.8124L37.2816 14.4368L22.5006 19.8124V22.497Z" stroke="#24D316" stroke-width="1.36815" stroke-miterlimit="10" stroke-linecap="round" stroke-linejoin="round"/>
<path d="M40.2438 25.4617C40.2438 27.0979 38.917 28.4247 37.2808 28.4247C35.6446 28.4247 34.3179 27.0979 34.3179 25.4617C34.3179 23.8255 35.6446 22.4988 37.2808 22.4988C38.917 22.4988 40.2438 23.8255 40.2438 25.4617Z" stroke="#24D316" stroke-width="1.36815" stroke-miterlimit="10" stroke-linecap="round" stroke-linejoin="round"/>
<path d="M43.9987 16.8803V11.75H46.6851V17.8571L43.9987 16.8803Z" stroke="#24D316" stroke-width="1.36815" stroke-miterlimit="10" stroke-linecap="round" stroke-linejoin="round"/>
<path d="M1 8.5745L14.4381 3.68908L27.8742 8.5745V5.88714L14.4381 1L1 5.88714V8.5745Z" stroke="#24D316" stroke-width="1.36815" stroke-miterlimit="10" stroke-linecap="round" stroke-linejoin="round"/>
<path d="M11.7498 11.7512H17.124V19.8138H11.7498V11.7512Z" stroke="#24D316" stroke-width="1.36815" stroke-miterlimit="10" stroke-linecap="round" stroke-linejoin="round"/>
<path d="M11.7498 15.7822H17.124V19.8137H11.7498V15.7822Z" stroke="#24D316" stroke-width="1.36815" stroke-miterlimit="10" stroke-linecap="round" stroke-linejoin="round"/>
<path d="M22.5007 22.497V19.8123L25.1872 18.8337V7.59579L14.4382 3.68896L3.68848 7.59579V26.5293H25.1872V21.521L22.5007 22.497Z" stroke="#24D316" stroke-width="1.36815" stroke-miterlimit="10" stroke-linecap="round" stroke-linejoin="round"/>
</svg>
