<svg width="52" height="49" viewBox="0 0 52 49" fill="none" xmlns="http://www.w3.org/2000/svg">
<path d="M28.3364 10.9662C27.4557 10.9662 27.4557 9.62186 28.3364 9.62186H38.5689C41.999 9.62186 44.7918 12.4263 44.7918 15.8447V19.3676L45.3944 18.3246C45.8347 17.5598 46.9819 18.2319 46.5532 18.9852L44.7107 22.1951C44.4557 22.6471 43.8068 22.6471 43.5518 22.2067L41.7092 19.0083C41.2689 18.2551 42.4277 17.5829 42.8681 18.3478L43.4707 19.3907V15.8679C43.4707 13.1794 41.2689 10.9892 38.5804 10.9892H28.3363L28.3364 10.9662ZM7.26933 31.779C6.82898 32.5322 5.68177 31.8717 6.1221 31.1185L7.96468 27.92C8.21962 27.4797 8.86856 27.4797 9.12356 27.92L10.9661 31.1185C11.4065 31.8717 10.2477 32.5438 9.81891 31.779L9.21632 30.736V33.9113C9.21632 36.5997 11.4181 38.8015 14.095 38.8015H21.1522C22.0329 38.8015 22.0329 40.1341 21.1522 40.1341H14.095C10.6764 40.1341 7.87213 37.3297 7.87213 33.9113V30.736L7.26933 31.779ZM37.1557 25.6024V27.0162C37.1557 27.3523 36.9124 27.6188 36.5879 27.6768C35.8231 27.8274 34.8149 28.2793 34.1543 28.6965C33.8878 28.8587 33.5401 28.824 33.3316 28.6038L32.335 27.6072L30.759 26.6918L29.6001 27.8506L30.5156 29.4266L31.5121 30.4232C31.7439 30.655 31.7671 31.0258 31.5817 31.2924C31.1529 31.9181 30.7473 32.9611 30.5735 33.7259C30.4924 34.0504 30.2027 34.2706 29.8782 34.2474H28.5224L26.7494 34.7225V36.3565L28.5108 36.82H29.9246C30.2607 36.82 30.5272 37.0634 30.5851 37.3763C30.7358 38.1527 31.1877 39.1492 31.6049 39.8214C31.7787 40.0879 31.7324 40.4355 31.5122 40.6441L30.5156 41.6407L29.6001 43.2167L30.759 44.3756L32.335 43.4601L33.3316 42.4635C33.5634 42.2318 33.9342 42.2086 34.2007 42.394C34.8381 42.8228 35.881 43.2284 36.6343 43.4022C36.9472 43.4717 37.1558 43.7498 37.1558 44.0511V45.4649L37.6193 47.2264H39.2533L39.7284 45.4534V44.0512C39.7284 43.7384 39.9486 43.4718 40.2499 43.4023C41.1306 43.2053 41.9766 42.8461 42.7297 42.3709C42.9963 42.1971 43.3439 42.2435 43.5641 42.4636L44.5607 43.4602L46.1367 44.3757L47.2956 43.2168L46.3801 41.6408L45.3835 40.6442C45.1518 40.4125 45.1286 40.0301 45.3256 39.7751C45.7543 39.1378 46.1483 38.0948 46.3222 37.3415C46.3917 37.0287 46.6698 36.8201 46.9711 36.8201H48.3849L50.1463 36.3565V34.711L48.3734 34.2359H46.9712C46.6583 34.2359 46.3918 34.0157 46.3223 33.7144C46.1253 32.8337 45.766 31.9878 45.2909 31.2346C45.1171 30.968 45.1634 30.6204 45.3836 30.4002L46.3802 29.4036L47.2957 27.8276L46.1368 26.6687L44.5608 27.5842L43.5642 28.5808C43.3324 28.8126 42.9616 28.8357 42.6951 28.6387C42.0577 28.21 41.0264 27.816 40.2615 27.6421C39.9486 27.5726 39.74 27.2945 39.74 26.9932V25.5794L39.2765 23.818H37.6425L37.1557 25.6024ZM35.8231 26.4947V25.5213C35.8231 25.3011 36.3677 23.4586 36.4604 23.0414C36.5184 22.7286 36.7965 22.4968 37.121 22.4968H39.7863C40.0876 22.4968 40.3541 22.6938 40.4352 22.9951C40.5279 23.3311 41.0841 25.3243 41.0841 25.5097V26.4831C41.7563 26.6801 42.382 26.9351 42.9962 27.2711L43.6915 26.5758C43.8422 26.4252 45.5341 25.4981 45.8933 25.2779C46.1482 25.1041 46.5075 25.1273 46.7392 25.3591L48.6166 27.2364C48.8251 27.445 48.8715 27.7694 48.7209 28.036C48.547 28.3373 47.5272 30.145 47.3998 30.2725L46.7045 30.9678C47.0405 31.5704 47.3071 32.2077 47.4925 32.8799L48.6397 32.903L50.9458 33.5172C51.2587 33.5752 51.4904 33.8533 51.4904 34.1777V36.843C51.4904 37.1443 51.2934 37.4109 50.9922 37.492C50.6561 37.5847 48.6629 38.1409 48.4775 38.1409H47.5041C47.3071 38.813 47.0522 39.4388 46.7161 40.053L47.4114 40.7483C47.5621 40.8989 48.4891 42.5909 48.7093 42.95C48.8831 43.205 48.86 43.5642 48.6282 43.796L46.7161 45.6849C46.5075 45.8935 46.183 45.9398 45.9165 45.7892C45.6152 45.6153 43.8075 44.5955 43.68 44.4681L42.9847 43.7728C42.3821 44.1088 41.7448 44.3754 41.0726 44.5608L41.0379 45.7197L40.4237 48.0258C40.3657 48.3387 40.0876 48.5704 39.7631 48.5704H37.0979C36.7966 48.5704 36.53 48.3734 36.4489 48.0721C36.3562 47.7361 35.8 45.7429 35.8 45.5575V44.5841C35.1278 44.3871 34.5021 44.1206 33.8879 43.7961L33.1926 44.4914C33.0419 44.642 31.35 45.5691 30.9908 45.7893C30.7359 45.9747 30.3767 45.9399 30.1449 45.7082L28.2908 43.7961C28.0822 43.5875 28.0358 43.263 28.1865 42.9965C28.3603 42.6952 29.3801 40.8874 29.5076 40.76L30.2029 40.0647C29.8668 39.4621 29.6003 38.8247 29.4149 38.1526H28.4414C28.2213 38.1526 26.3787 37.608 25.9616 37.5152C25.6487 37.4573 25.4169 37.1792 25.4169 36.8547V34.1894C25.4169 33.8881 25.6139 33.6216 25.9152 33.5405L28.2676 32.9147L29.4149 32.8915C29.6119 32.2194 29.8668 31.5937 30.2029 30.9795L29.5076 30.2842C29.3569 30.1335 28.4298 28.4416 28.2097 28.0824C28.0243 27.8275 28.059 27.4682 28.2908 27.2365L30.1681 25.3591C30.3767 25.1505 30.7012 25.1042 30.9677 25.2548C31.269 25.4403 33.0768 26.4485 33.2042 26.5759L33.8995 27.2712C34.5137 26.9468 35.151 26.6918 35.8232 26.4948L35.8231 26.4947ZM38.4421 30.2957C41.3275 30.2957 43.68 32.6365 43.68 35.5336C43.68 38.4307 41.3392 40.7599 38.4421 40.7599C35.5566 40.7599 33.2158 38.4191 33.2158 35.5336C33.2158 32.6482 35.5566 30.2957 38.4421 30.2957ZM41.1885 32.7755C38.7434 30.3304 34.5484 32.0802 34.5484 35.5335C34.5484 38.9868 38.7549 40.7366 41.1885 38.28C42.7182 36.7619 42.7182 34.3051 41.1885 32.7755ZM12.832 15.9952C12.5539 13.1908 12.1947 10.7457 12.1947 7.79061C12.1947 5.32229 16.3433 5.32229 16.3433 7.79061C16.3433 10.7108 16.0072 13.2023 15.7523 15.9835C15.59 17.6638 12.9942 17.6755 12.832 15.9952ZM13.9561 13.9441C14.014 14.5351 14.0835 15.1377 14.1646 15.8677C14.1646 15.9488 14.4196 15.9488 14.4312 15.8677C14.6861 13.0401 15.0106 10.7226 15.0106 7.79071C15.0106 7.09541 13.5388 7.09541 13.5388 7.79071C13.5273 10.0272 13.7243 11.8698 13.9561 13.9441ZM12.2989 19.8078C12.2989 17.0613 16.239 17.2584 16.239 19.6456C16.2274 22.392 12.2989 22.1949 12.2989 19.8078ZM13.9676 19.1936C13.5041 19.379 13.423 20.3293 14.2689 20.3293C15.0685 20.3293 15.1496 19.1356 14.2573 19.1356C14.153 19.1356 14.0603 19.1472 13.9676 19.1936ZM16.517 1.3124L28.163 21.4758C29.1712 23.2256 27.8965 25.381 25.9033 25.381H2.61123C0.629648 25.381 -0.656693 23.2372 0.351528 21.4758L11.9976 1.3124C13.0173 -0.437468 15.5089 -0.437468 16.517 1.3124ZM21.187 12.0547L15.3697 1.9729C14.8714 1.12695 13.6546 1.12695 13.168 1.9729L1.52196 22.1363C1.04684 22.9706 1.61466 24.0368 2.62289 24.0368H25.915C26.9231 24.0368 27.5025 22.9707 27.0159 22.1363L21.187 12.0547Z" fill="#24D316"/>
</svg>
