<svg width="50" height="51" viewBox="0 0 50 51" fill="none" xmlns="http://www.w3.org/2000/svg">
<path d="M44.9428 29.0197L44.9057 29.0353V15.5738L46.3374 16.6691C46.9778 17.1583 47.8309 17.2685 48.5744 16.9586C49.3184 16.6487 49.8404 15.9653 49.944 15.1658C50.0475 14.3667 49.7166 13.5731 49.0761 13.0839L33.4028 1.10083C32.9648 0.801904 32.4466 0.64209 31.9164 0.64209C31.3857 0.64209 30.8676 0.801914 30.4296 1.10083L14.7563 13.0889C14.1158 13.5781 13.7853 14.3721 13.8888 15.1712C13.9924 15.9707 14.5144 16.6541 15.2584 16.964C16.0023 17.2739 16.8554 17.1633 17.4958 16.6741L18.9272 15.5788V20.2093H10.2825C9.62758 18.7529 8.35914 17.6631 6.82112 17.2349C5.2827 16.8062 3.63334 17.0836 2.31999 17.9918C1.00625 18.8999 0.164164 20.3448 0.0215157 21.9353C-0.121113 23.5256 0.450571 25.0973 1.58184 26.2246C2.71312 27.352 4.28626 27.9182 5.8763 27.7701C7.46664 27.622 8.90852 26.7752 9.81203 25.4584H14.4937C14.6445 25.4584 14.7911 25.4076 14.9095 25.3138L15.2737 25.0254L16.0724 25.4646C16.3283 25.6041 16.6452 25.5623 16.8566 25.3615L17.3634 24.8769L18.1023 25.3521C18.2106 25.4216 18.3364 25.4584 18.465 25.4584H18.9253V26.8792C17.5342 26.9831 16.181 27.3844 14.9579 28.0554C12.9628 29.1096 10.8342 30.8766 7.91686 33.9116L6.82669 32.755H6.82708C6.57269 32.4862 6.14912 32.4737 5.8791 32.7265L0.44676 37.8404C0.1787 38.0947 0.166195 38.5179 0.419017 38.7876L11.7288 50.7906C11.9832 51.0587 12.4064 51.0712 12.676 50.8184L18.1099 45.6975V45.6979C18.3783 45.4435 18.3912 45.0203 18.1384 44.7507L17.1182 43.6684C20.0171 39.6506 21.8237 39.8327 26.0298 40.2586C28.3439 40.529 30.674 40.6404 33.0032 40.5919H33.0728C35.1036 40.5919 39.2784 38.6905 45.8261 34.7837C49.3101 32.8577 49.9072 30.8894 49.3043 29.6859C48.7666 28.6211 47.0973 28.0452 44.9434 29.0201L44.9428 29.0197ZM16.6802 15.6032C16.2785 15.8912 15.7209 15.8079 15.4208 15.4152C15.1211 15.0225 15.1875 14.4626 15.5712 14.1507L31.2446 2.16263H31.2442C31.422 2.02742 31.6435 1.96217 31.8663 1.97937C31.8995 1.98171 31.9335 1.98171 31.9671 1.97937C32.1898 1.96217 32.4114 2.02743 32.5892 2.16263L48.2625 14.1507C48.6634 14.4574 48.74 15.0315 48.4332 15.4323C48.1265 15.8336 47.5528 15.9098 47.1516 15.6031L32.3196 4.26424C32.0789 4.08098 31.7455 4.08098 31.5052 4.26424L16.6802 15.6032ZM17.6438 23.4581C17.3832 23.2913 17.0425 23.3241 16.8182 23.5375L16.2844 24.0474L15.5263 23.6312V23.6308C15.2899 23.5015 14.9992 23.5257 14.7874 23.6926L14.2575 24.1123H9.43991V24.1119C9.20194 24.1126 8.98195 24.2389 8.8616 24.4444C8.23873 25.5116 7.16062 26.2345 5.93641 26.4056C4.71259 26.5767 3.47737 26.177 2.58567 25.3212C1.69396 24.4654 1.24342 23.2478 1.36416 22.0178C1.48451 20.7877 2.16248 19.6811 3.20348 19.0145C4.24443 18.3478 5.53317 18.1954 6.70117 18.601C7.86876 19.0063 8.78587 19.9245 9.18991 21.0925C9.28369 21.3625 9.53808 21.5434 9.82371 21.5442H20.2382L21.5223 22.8282L20.2382 24.1123L18.6623 24.1119L17.6438 23.4581ZM20.5136 25.4526C20.6914 25.4526 20.8618 25.3819 20.9876 25.2564L22.9422 23.3019C23.2028 23.0397 23.2028 22.6165 22.9422 22.3543L20.9876 20.4005V20.4001C20.8622 20.2743 20.6914 20.2036 20.5136 20.2036H20.2647V14.5458L31.9166 5.63886L43.5656 14.5458V29.6289C43.106 29.8399 42.6872 30.0396 42.2957 30.226V30.2264C40.4766 31.1614 38.5456 31.8605 36.5492 32.3064C36.3706 32.3064 36.1245 32.2911 35.8169 32.27L35.8173 30.1334C35.849 30.1135 35.8795 30.0908 35.9076 30.0654C37.997 28.1808 37.9513 26.3379 37.2111 25.2415L37.2107 25.2419C36.8766 24.7452 36.3862 24.3744 35.8173 24.188V21.6743C35.8173 21.303 35.516 21.0021 35.1448 21.0021H28.6856C28.314 21.0021 28.0131 21.303 28.0131 21.6743V26.2863C26.0444 26.833 24.0144 27.1276 21.9715 27.1643C21.4116 27.0252 20.8411 26.9315 20.2663 26.8842V25.4528L20.5136 25.4526ZM34.4753 32.1596C33.8032 32.099 32.9928 32.0197 32.044 31.9216C32.8759 31.6235 33.688 31.2726 34.4753 30.8712V32.1596ZM34.4753 24.0795C34.1795 24.1253 33.8923 24.2136 33.6215 24.3417C33.16 24.507 32.6954 24.6825 32.2046 24.8673C31.3043 25.2069 30.3638 25.5613 29.3549 25.8875L29.3553 22.3465H34.4754L34.4753 24.0795ZM12.2438 49.3831L1.85329 38.3564L6.3118 34.1549L7.30433 35.2088V35.2084C7.36021 35.3178 7.44618 35.4089 7.55207 35.471L16.7025 45.1817L12.2438 49.3831ZM45.167 33.6158L45.1474 33.6271C37.2549 38.3365 34.2007 39.2849 33.0203 39.2509H32.9824C30.7046 39.2982 28.4262 39.1892 26.1637 38.9242C21.8912 38.4917 19.4645 38.2474 16.1822 42.6775L8.83754 34.8819C14.4718 29.0158 17.6553 27.457 21.7329 28.4859C21.79 28.4996 21.8486 28.5066 21.9072 28.5058C24.2478 28.4691 26.5725 28.1143 28.8177 27.4516C28.8529 27.4445 28.8877 27.4348 28.9213 27.4219C30.3131 27.0139 31.5542 26.5462 32.6799 26.1218C33.177 25.9343 33.6459 25.7573 34.1074 25.5924C34.1305 25.5841 34.1531 25.5744 34.1754 25.5638C34.4935 25.3888 34.8643 25.3356 35.2188 25.4146C35.5732 25.4935 35.8866 25.6986 36.1007 25.9917C36.5208 26.6146 36.4633 27.7357 35.059 29.0263C32.3627 30.6156 29.4403 31.5303 27.4123 31.4166C27.0629 31.417 26.7722 31.6847 26.7429 32.0329C26.714 32.3806 26.9559 32.6929 27.3001 32.7515C27.7565 32.8034 28.1965 32.8523 28.619 32.9C33.0939 33.3978 35.7167 33.6428 36.6197 33.6467C36.6697 33.6467 36.7197 33.6412 36.7686 33.6299C38.8888 33.1649 40.9399 32.4272 42.8706 31.435C43.6455 31.0658 44.4466 30.684 45.4711 30.2506L45.4867 30.244C46.8095 29.6434 47.8563 29.7958 48.1044 30.2901C48.3643 30.8055 47.7957 32.1649 45.1675 33.6158L45.167 33.6158ZM11.7446 44.9126L11.7618 44.8856H11.7622C11.9779 44.6129 12.3663 44.55 12.6575 44.7403C12.9486 44.931 13.0463 45.3119 12.8825 45.6191L12.8653 45.646C12.6492 45.9188 12.2608 45.9817 11.9701 45.791C11.679 45.6007 11.5813 45.2197 11.7446 44.9126ZM4.5277 22.8691L4.51051 22.8961C4.24362 23.2767 3.72313 23.3771 3.33351 23.1231C2.94432 22.8695 2.82631 22.3525 3.06701 21.9547L3.0842 21.9285C3.34406 21.53 3.87822 21.4174 4.2768 21.6777C4.67538 21.9375 4.78792 22.4713 4.52767 22.8703L4.5277 22.8691Z" fill="#24D316"/>
</svg>
