<svg width="45" height="45" viewBox="0 0 45 45" fill="none" xmlns="http://www.w3.org/2000/svg">
<rect width="45" height="45" rx="5" fill="#24D316"/>
<path d="M42.1127 11.25C40.6689 11.9062 39.1127 12.3375 37.5002 12.5438C39.1502 11.55 40.4252 9.975 41.0252 8.08125C39.4689 9.01875 37.7439 9.675 35.9252 10.05C34.4439 8.4375 32.3627 7.5 30.0002 7.5C25.5939 7.5 21.9939 11.1 21.9939 15.5437C21.9939 16.1812 22.0689 16.8 22.2002 17.3813C15.5252 17.0438 9.58145 13.8375 5.6252 8.98125C4.93145 10.1625 4.5377 11.55 4.5377 13.0125C4.5377 15.8063 5.94395 18.2812 8.11895 19.6875C6.7877 19.6875 5.5502 19.3125 4.4627 18.75V18.8062C4.4627 22.7062 7.2377 25.9688 10.9127 26.7C9.73281 27.0229 8.49412 27.0678 7.29395 26.8313C7.80321 28.4296 8.80058 29.8283 10.1459 30.8305C11.4911 31.8327 13.1167 32.3882 14.7939 32.4188C11.9508 34.6696 8.42644 35.8862 4.8002 35.8687C4.1627 35.8687 3.5252 35.8312 2.8877 35.7562C6.4502 38.0437 10.6877 39.375 15.2252 39.375C30.0002 39.375 38.1189 27.1125 38.1189 16.4812C38.1189 16.125 38.1189 15.7875 38.1002 15.4312C39.6752 14.3062 41.0252 12.8812 42.1127 11.25Z" fill="#F8F8F8"/>
</svg>
