<svg width="45" height="45" viewBox="0 0 45 45" fill="none" xmlns="http://www.w3.org/2000/svg">
<rect width="45" height="45" rx="5" fill="#24D316"/>
<path d="M30.9375 4.21875H14.0625C11.4526 4.22154 8.95046 5.25954 7.105 7.105C5.25954 8.95046 4.22154 11.4526 4.21875 14.0625V30.9375C4.22154 33.5474 5.25954 36.0495 7.105 37.895C8.95046 39.7405 11.4526 40.7785 14.0625 40.7812H30.9375C33.5474 40.7785 36.0495 39.7405 37.895 37.895C39.7405 36.0495 40.7785 33.5474 40.7812 30.9375V14.0625C40.7785 11.4526 39.7405 8.95046 37.895 7.105C36.0495 5.25954 33.5474 4.22154 30.9375 4.21875ZM22.5 30.9375C20.8312 30.9375 19.1999 30.4426 17.8124 29.5155C16.4248 28.5884 15.3434 27.2706 14.7048 25.7289C14.0662 24.1871 13.8991 22.4906 14.2246 20.8539C14.5502 19.2172 15.3538 17.7138 16.5338 16.5338C17.7138 15.3538 19.2172 14.5502 20.8539 14.2246C22.4906 13.8991 24.1871 14.0662 25.7289 14.7048C27.2706 15.3434 28.5884 16.4248 29.5155 17.8124C30.4426 19.1999 30.9375 20.8312 30.9375 22.5C30.9352 24.737 30.0455 26.8818 28.4636 28.4636C26.8818 30.0455 24.737 30.9352 22.5 30.9375ZM33.0469 14.0625C32.6297 14.0625 32.2219 13.9388 31.875 13.707C31.5281 13.4752 31.2577 13.1458 31.0981 12.7603C30.9384 12.3749 30.8966 11.9508 30.978 11.5416C31.0594 11.1324 31.2603 10.7566 31.5553 10.4616C31.8503 10.1666 32.2262 9.96567 32.6354 9.88428C33.0445 9.80289 33.4687 9.84466 33.8541 10.0043C34.2395 10.164 34.569 10.4343 34.8008 10.7812C35.0325 11.1281 35.1562 11.5359 35.1562 11.9531C35.1562 12.5126 34.934 13.0491 34.5384 13.4447C34.1428 13.8403 33.6063 14.0625 33.0469 14.0625ZM28.125 22.5C28.125 23.6125 27.7951 24.7001 27.177 25.6251C26.5589 26.5501 25.6804 27.2711 24.6526 27.6968C23.6248 28.1226 22.4938 28.234 21.4026 28.0169C20.3115 27.7999 19.3092 27.2641 18.5225 26.4775C17.7359 25.6908 17.2001 24.6885 16.9831 23.5974C16.766 22.5062 16.8774 21.3752 17.3032 20.3474C17.7289 19.3196 18.4499 18.4411 19.3749 17.823C20.2999 17.2049 21.3875 16.875 22.5 16.875C23.9918 16.875 25.4226 17.4676 26.4775 18.5225C27.5324 19.5774 28.125 21.0082 28.125 22.5Z" fill="#F8F8F8"/>
</svg>
