<svg width="41" height="63" viewBox="0 0 41 63" fill="none" xmlns="http://www.w3.org/2000/svg">
<path d="M38.9086 0H1.37469C0.616681 0 0 0.619067 0 1.38059V24.1377C0 24.8991 0.616261 25.5183 1.37469 25.5183H8.97027V30.6048C8.97027 30.8716 9.18524 31.0876 9.45089 31.0876H12.4021L0.593684 59.9872C0.53079 60.189 0.500282 60.3964 0.500282 60.6223C0.500282 61.5582 1.12031 62.4002 2.00546 62.6695C2.21386 62.7341 2.42788 62.7661 2.63955 62.7661C2.98453 62.7661 3.32621 62.6813 3.63928 62.5144C4.14149 62.2466 4.50852 61.7987 4.65872 61.2955L16.9049 31.0875H18.021L17.991 57.357C17.9877 57.9261 18.2069 58.4627 18.6077 58.8682C19.0142 59.2784 19.5445 59.5142 20.1322 59.4995C21.0564 59.4995 21.8905 58.8819 22.166 57.9851C22.2307 57.7602 22.2612 57.5612 22.2612 57.3604L22.2866 31.0884H24.3686L35.6102 61.2554C35.7749 61.8 36.1424 62.2479 36.6446 62.5157C36.9582 62.6826 37.2999 62.7674 37.6448 62.7674C37.856 62.7674 38.0687 62.7354 38.2761 62.6713C39.1637 62.4016 39.7837 61.5595 39.7837 60.6236C39.7837 60.3977 39.7532 60.1903 39.6818 59.9625L28.859 31.0895H30.8327C31.0983 31.0895 31.3133 30.8735 31.3133 30.6067V25.5202H38.9089C39.6669 25.5202 40.2836 24.9011 40.2836 24.1396V1.38248C40.2836 0.621024 39.6673 0.00189632 38.9089 0.00189632L38.9086 0ZM3.75375 60.9725C3.66364 61.27 3.46275 61.5142 3.18818 61.6608C2.90986 61.8089 2.58975 61.8386 2.28562 61.7452C1.8003 61.5976 1.46143 61.1356 1.46143 60.6217C1.46143 60.4953 1.47739 60.3817 1.4971 60.3143L13.4417 31.0875H15.8677L3.75375 60.9725ZM21.2999 57.3589C21.2999 57.4683 21.2821 57.5781 21.245 57.7073C21.0953 58.1944 20.6386 58.5329 20.1289 58.5329C19.8191 58.5329 19.5126 58.4117 19.2897 58.1864C19.0705 57.9648 18.9508 57.672 18.9522 57.3594L18.9823 31.0874H21.3253L21.2999 57.3589ZM38.7728 60.275C38.8062 60.3816 38.8221 60.4952 38.8221 60.6216C38.8221 61.1355 38.4832 61.5976 37.9956 61.7456C37.6933 61.8399 37.3737 61.8097 37.0954 61.6608C36.8208 61.5141 36.6199 61.2699 36.5204 60.9436L25.3953 31.0869H27.8321L38.7728 60.275ZM30.3522 30.1213H28.2522C28.1921 30.1091 28.1316 30.1091 28.0687 30.1213H24.7278C24.7222 30.1209 24.717 30.1213 24.7114 30.1213H21.8188C21.8145 30.1213 21.8113 30.119 21.807 30.119H21.8066C21.8023 30.119 21.7991 30.1213 21.7948 30.1213H18.5145C18.5103 30.1213 18.507 30.119 18.5028 30.119H18.5023C18.4981 30.119 18.4948 30.1213 18.4906 30.1213H16.592C16.5817 30.1209 16.5723 30.1209 16.5619 30.1213H13.215C13.1531 30.1096 13.0925 30.1091 13.0329 30.1213H9.9315V25.5177H30.3518L30.3522 30.1213ZM39.3224 24.1372C39.3224 24.3659 39.137 24.5521 38.9089 24.5521H30.8445C30.8403 24.5521 30.837 24.5498 30.8328 24.5498C30.8285 24.5498 30.8253 24.5521 30.821 24.5521H9.46234C9.45811 24.5521 9.45483 24.5498 9.4506 24.5498C9.44638 24.5498 9.4431 24.5521 9.43887 24.5521H1.37445C1.14634 24.5521 0.960946 24.3659 0.960946 24.1372V1.3801C0.960946 1.15143 1.14634 0.965191 1.37445 0.965191H38.9096C39.1377 0.965191 39.3231 1.15143 39.3231 1.3801L39.3224 24.1372Z" fill="#24D316"/>
<path d="M35.7444 2.81055H27.0231C26.758 2.81055 26.5435 3.03003 26.5435 3.30127V7.31624C26.5435 7.58747 26.758 7.80696 27.0231 7.80696H35.7444C36.0095 7.80696 36.224 7.58747 36.224 7.31624V3.30127C36.224 3.03003 36.0095 2.81055 35.7444 2.81055ZM35.2648 6.82552H27.5027V3.79199H35.2648V6.82552Z" fill="#24D316"/>
<path d="M14.0526 2.81055C8.54241 2.81055 4.05957 7.29435 4.05957 12.8058C4.05957 18.3148 8.54253 22.7962 14.0526 22.7962C19.5624 22.7962 24.0452 18.3147 24.0452 12.8058C24.0452 7.29447 19.5627 2.81055 14.0526 2.81055ZM14.0526 21.8287C9.07588 21.8287 5.02732 17.7809 5.02732 12.8058C5.02732 7.82782 9.076 3.77808 14.0526 3.77808C19.0289 3.77808 23.0775 7.8277 23.0775 12.8058C23.0775 17.781 19.0288 21.8287 14.0526 21.8287Z" fill="#24D316"/>
<path d="M14.2087 5.93335C10.3342 5.93335 7.18225 9.08668 7.18225 12.9621C7.18225 16.8348 10.3342 19.9858 14.2087 19.9858C18.0827 19.9858 21.2347 16.8348 21.2347 12.9621C21.2351 9.08668 18.0827 5.93335 14.2087 5.93335ZM14.2087 19.0252C10.8643 19.0252 8.143 16.3053 8.143 12.962C8.143 9.616 10.8643 6.89366 14.2087 6.89366C17.5531 6.89366 20.2739 9.616 20.2739 12.962C20.2744 16.3053 17.5535 19.0252 14.2087 19.0252Z" fill="#24D316"/>
<path d="M14.1988 9.05615C13.9452 9.05615 13.74 9.27689 13.74 9.54967C13.74 9.82246 13.9452 10.0432 14.1988 10.0432C15.6785 10.0432 16.882 11.3402 16.882 12.9345C16.882 13.2073 17.0872 13.428 17.3408 13.428C17.5944 13.428 17.7996 13.2073 17.7996 12.9345C17.7996 10.7961 16.1845 9.05615 14.1988 9.05615Z" fill="#24D316"/>
<path d="M32.0082 15.926C30.3722 15.926 29.0416 17.2559 29.0416 18.89C29.0416 20.5271 30.3722 21.8593 32.0082 21.8593C33.6443 21.8593 34.9749 20.5271 34.9749 18.89C34.9753 17.2559 33.6443 15.926 32.0082 15.926ZM32.0082 20.89C30.9074 20.89 30.0117 19.9928 30.0117 18.89C30.0117 17.7902 30.9074 16.8953 32.0082 16.8953C33.1091 16.8953 34.0048 17.7902 34.0048 18.89C34.0053 19.9927 33.1096 20.89 32.0082 20.89Z" fill="#24D316"/>
</svg>
