<svg width="51" height="39" viewBox="0 0 51 39" fill="none" xmlns="http://www.w3.org/2000/svg">
<path d="M20.2067 20.9799H15.1341C14.7584 20.9799 14.5077 20.7296 14.5077 20.3535C14.5077 19.9778 14.758 19.7271 15.1341 19.7271H20.2067C20.5824 19.7271 20.8331 19.9774 20.8331 20.3535C20.8327 20.7292 20.5824 20.9799 20.2067 20.9799Z" fill="#24D316"/>
<path d="M50.3295 38.2018H0.604879C0.417036 38.2018 0.229193 38.0765 0.103819 37.9515C-0.0215545 37.7637 -0.0215549 37.5758 0.0413512 37.388L6.99278 20.166C7.11815 19.9157 7.306 19.7903 7.55631 19.7903H10.0611C10.4368 19.7903 10.6875 20.0406 10.6875 20.4167C10.6875 20.7924 10.4372 21.0432 10.0611 21.0432H7.93195L1.54404 36.9489H49.3899L42.9395 20.9794H40.8103C40.4346 20.9794 40.1839 20.7291 40.1839 20.353C40.1839 19.9773 40.4342 19.7266 40.8103 19.7266H43.3151C43.5654 19.7266 43.8162 19.8519 43.8787 20.1022L50.8301 37.3243C50.8925 37.5121 50.8926 37.7628 50.7676 37.8878C50.7052 38.0761 50.5173 38.2014 50.3295 38.2014L50.3295 38.2018Z" fill="#24D316"/>
<path d="M36.3013 20.9799H30.6653C30.2896 20.9799 30.0388 20.7296 30.0388 20.3535C30.0388 19.9778 30.2891 19.7271 30.6653 19.7271H36.3013C36.677 19.7271 36.9278 19.9774 36.9278 20.3535C36.9278 20.7292 36.677 20.9799 36.3013 20.9799Z" fill="#24D316"/>
<path d="M25.4672 29.5595C25.2794 29.5595 25.0286 29.4341 24.9662 29.2462C24.7159 28.8077 18.3904 19.1635 18.3904 15.4686C18.3904 11.586 21.5842 8.39185 25.4672 8.39185C29.3498 8.39185 32.544 11.5856 32.544 15.4686C32.544 19.1634 26.2814 28.8079 25.9682 29.2462C25.9057 29.497 25.655 29.5595 25.4671 29.5595H25.4672ZM25.4672 9.70718C22.2734 9.70718 19.6433 12.3375 19.6433 15.5311C19.6433 18.0359 23.4634 24.6117 25.4672 27.8057C27.4715 24.6119 31.2912 18.0363 31.2912 15.5311C31.2912 12.3373 28.6609 9.70718 25.4672 9.70718Z" fill="#24D316"/>
<path d="M25.4672 17.9112C23.9641 17.9112 22.7745 16.7212 22.7745 15.2186C22.7745 13.7154 23.9645 12.5259 25.4672 12.5259C26.9703 12.5259 28.1599 13.7159 28.1599 15.2186C28.1599 16.7212 26.9703 17.9112 25.4672 17.9112ZM25.4672 13.7153C24.6529 13.7153 24.0269 14.3417 24.0269 15.1556C24.0269 15.9699 24.6534 16.5959 25.4672 16.5959C26.2815 16.5959 26.9075 15.9694 26.9075 15.1556C26.9075 14.3418 26.2815 13.7153 25.4672 13.7153Z" fill="#24D316"/>
<path d="M12.5036 22.7333C12.1279 22.7333 11.8772 22.483 11.8772 22.1068L11.8776 14.404C11.8776 14.0283 12.1279 13.7776 12.5041 13.7776C12.8798 13.7776 13.1305 14.0279 13.1305 14.404V22.1068C13.1301 22.4201 12.8168 22.7333 12.5036 22.7333Z" fill="#24D316"/>
<path d="M12.5037 17.6607C9.81101 17.6607 7.6189 15.4686 7.6189 12.7759C7.6189 10.0832 9.81101 7.89111 12.5037 7.89111C15.1964 7.89111 17.3885 10.0832 17.3885 12.7759C17.3889 15.4686 15.1968 17.6607 12.5037 17.6607ZM12.5037 9.14362C10.4994 9.14362 8.87141 10.7718 8.87141 12.7759C8.87141 14.78 10.4996 16.4082 12.5037 16.4082C14.5078 16.4082 16.136 14.78 16.136 12.7759C16.136 10.7718 14.5078 9.14362 12.5037 9.14362Z" fill="#24D316"/>
<path d="M15.7602 23.2343H9.24741C8.87172 23.2343 8.62097 22.984 8.62097 22.6079C8.62097 22.2322 8.87128 21.9814 9.24741 21.9814H15.7602C16.1359 21.9814 16.3867 22.2318 16.3867 22.6079C16.3867 22.9836 16.1359 23.2343 15.7602 23.2343Z" fill="#24D316"/>
<path d="M38.4933 22.7333C38.1176 22.7333 37.8668 22.483 37.8668 22.1068V14.404C37.8668 14.0283 38.1171 13.7776 38.4933 13.7776C38.8689 13.7776 39.1197 14.0279 39.1197 14.404V22.1068C39.1193 22.4201 38.8689 22.7333 38.4933 22.7333Z" fill="#24D316"/>
<path d="M38.4933 17.6607C35.8006 17.6607 33.6085 15.4686 33.6085 12.7759C33.6085 10.0832 35.8006 7.89111 38.4933 7.89111C41.186 7.89111 43.3781 10.0832 43.3781 12.7759C43.3781 15.4686 41.186 17.6607 38.4933 17.6607ZM38.4933 9.14362C36.4891 9.14362 34.861 10.7718 34.861 12.7759C34.861 14.78 36.4892 16.4082 38.4933 16.4082C40.4974 16.4082 42.1256 14.78 42.1256 12.7759C42.1256 10.7718 40.4971 9.14362 38.4933 9.14362Z" fill="#24D316"/>
<path d="M41.7498 23.2343H35.2365C34.8609 23.2343 34.6101 22.984 34.6101 22.6079C34.6101 22.2322 34.8604 21.9814 35.2365 21.9814H41.7498C42.1255 21.9814 42.3762 22.2318 42.3762 22.6079C42.3758 22.9836 42.1255 23.2343 41.7498 23.2343Z" fill="#24D316"/>
<path d="M34.6105 6.01232C33.9841 6.01232 33.3581 5.88694 32.857 5.63663C30.8528 5.82447 29.2247 4.82236 29.2247 3.44451C29.2247 2.56778 29.9136 1.81636 31.0406 1.44028C31.4792 0.563541 32.6688 0 34.0466 0C35.8001 0 37.2403 0.939204 37.2403 2.19212V2.50533C37.616 2.88102 37.8039 3.3196 37.8039 3.75773C37.8043 5.07264 36.364 6.01232 34.6105 6.01232ZM32.982 4.38383C33.1074 4.38383 33.1699 4.38383 33.2953 4.4463C33.6709 4.63414 34.172 4.75951 34.673 4.75951C35.7376 4.75951 36.6143 4.25845 36.6143 3.82031C36.6143 3.63247 36.4889 3.44462 36.2386 3.25678C35.9883 3.06894 35.8629 2.69325 36.0508 2.44252C36.1132 2.38005 36.1132 2.31714 36.1132 2.25467C36.1132 1.81608 35.299 1.31547 34.172 1.31547C33.1698 1.31547 32.356 1.75406 32.2307 2.1922C32.1682 2.44252 31.9804 2.6308 31.7296 2.6308C30.9782 2.81864 30.5396 3.19432 30.5396 3.50753C30.5396 3.94612 31.3539 4.44673 32.4809 4.44673C32.6687 4.44673 32.7941 4.44673 32.982 4.38427C32.9195 4.38383 32.9196 4.38383 32.982 4.38383Z" fill="#24D316"/>
<path d="M16.2613 6.70128C15.6348 6.70128 15.0089 6.57591 14.5078 6.32559C12.5035 6.51344 10.8755 5.51133 10.8755 4.13348C10.8755 3.25674 11.5644 2.50533 12.6914 2.12924C13.13 1.2525 14.3196 0.688965 15.6973 0.688965C17.4508 0.688965 18.8911 1.62817 18.8911 2.88108V3.1943C19.2668 3.56998 19.4546 4.00856 19.4546 4.4467C19.3926 5.69909 18.0148 6.70128 16.2613 6.70128ZM14.5703 5.07279C14.6957 5.07279 14.7581 5.07279 14.8835 5.13526C15.2592 5.3231 15.7602 5.44848 16.2613 5.44848C17.3258 5.44848 18.2025 4.94742 18.2025 4.50928C18.2025 4.32143 18.0772 4.13359 17.8269 3.94575C17.5765 3.7579 17.4512 3.38222 17.639 3.13148C17.7015 3.06901 17.7015 3.00611 17.7015 2.94364C17.7015 2.50505 16.8872 2.00443 15.7602 2.00443C14.7581 2.00443 13.9443 2.44303 13.8189 2.88117C13.7565 3.13148 13.5686 3.31976 13.3179 3.31976C12.5665 3.5076 12.1279 3.88329 12.1279 4.19649C12.1279 4.63508 12.9421 5.1357 14.0691 5.1357C14.257 5.1357 14.3824 5.1357 14.5702 5.07323C14.5077 5.07279 14.5703 5.07279 14.5703 5.07279Z" fill="#24D316"/>
<path d="M25.655 31.3757C22.0228 31.3757 18.3904 30.3736 18.3904 28.4947C18.3904 27.1793 20.2063 26.1148 23.2752 25.739C23.5884 25.6766 23.9016 25.9269 23.9641 26.3026C24.0265 26.6158 23.7762 26.929 23.4005 26.9915C20.7703 27.3047 19.5804 28.1185 19.5804 28.4946C19.5804 28.9957 21.647 30.1227 25.5927 30.1227C29.5383 30.1227 31.6049 28.9957 31.6049 28.4946C31.6049 28.1189 30.3525 27.2422 27.409 26.9915C27.0958 26.929 26.7826 26.6783 26.8455 26.3026C26.908 25.9894 27.1587 25.739 27.5344 25.739C30.1022 25.9894 32.8578 26.8661 32.8578 28.4947C32.9198 30.374 29.2875 31.3757 25.6552 31.3757H25.655Z" fill="#24D316"/>
</svg>
