<svg width="24" height="24" viewBox="0 0 24 24" fill="none" xmlns="http://www.w3.org/2000/svg">
<path d="M16.8797 2.87993C16.7636 2.76352 16.6256 2.67116 16.4738 2.60815C16.3219 2.54513 16.1591 2.5127 15.9947 2.5127C15.8303 2.5127 15.6674 2.54513 15.5156 2.60815C15.3637 2.67116 15.2258 2.76352 15.1097 2.87993L6.69967 11.2899C6.60697 11.3824 6.53342 11.4923 6.48324 11.6133C6.43306 11.7343 6.40723 11.864 6.40723 11.9949C6.40723 12.1259 6.43306 12.2556 6.48324 12.3766C6.53342 12.4975 6.60697 12.6074 6.69967 12.6999L15.1097 21.1099C15.5997 21.5999 16.3897 21.5999 16.8797 21.1099C17.3697 20.6199 17.3697 19.8299 16.8797 19.3399L9.53967 11.9999L16.8897 4.64993C17.3697 4.15993 17.3697 3.36993 16.8797 2.87993Z" fill="#24D316"/>
</svg>
