<svg width="95" height="95" viewBox="0 0 95 95" fill="none" xmlns="http://www.w3.org/2000/svg">
<path d="M46.3107 43.7425C46.8266 44.072 47.4917 44.072 48.0076 43.7425L65.2926 32.7413C65.7401 32.4491 66.0136 31.9581 66.0136 31.4236V12.566C66.0136 12.0315 65.7401 11.5343 65.2926 11.2483L48.0076 0.247063C47.4917 -0.0823543 46.8266 -0.0823543 46.3107 0.247063L29.0257 11.2483C28.5782 11.5405 28.3047 12.0315 28.3047 12.566V31.4236C28.3047 31.9581 28.5782 32.4553 29.0257 32.7413L46.3107 43.7425ZM31.4435 13.43L47.156 3.43557L62.8748 13.43V30.5596L56.591 34.5686V26.7061C56.591 25.8732 56.2616 25.0714 55.6712 24.481C55.0807 23.8905 54.2789 23.5611 53.446 23.5611H40.8723C40.0394 23.5611 39.2376 23.8905 38.6471 24.481C38.0567 25.0714 37.7273 25.8732 37.7273 26.7061V34.5624L31.4435 30.5534V13.43Z" fill="#111111"/>
<path d="M51.8737 18.8497C51.8737 17.6004 51.3765 16.4008 50.4939 15.5183C49.6113 14.6357 48.4118 14.1384 47.1625 14.1384C45.9132 14.1384 44.7136 14.6357 43.831 15.5183C42.9484 16.4008 42.4512 17.6004 42.4512 18.8497C42.4512 20.099 42.9484 21.2986 43.831 22.1812C44.7136 23.0638 45.9132 23.561 47.1625 23.561C48.4118 23.561 49.6113 23.0638 50.4939 22.1812C51.3765 21.2986 51.8737 20.099 51.8737 18.8497Z" fill="#111111"/>
<path d="M0.733683 64.1727L18.0188 75.1739C18.5346 75.5034 19.1997 75.5034 19.7156 75.1739L37.0006 64.1727C37.4481 63.8805 37.7216 63.3895 37.7216 62.855V43.9974C37.7216 43.4629 37.4481 42.9657 37.0006 42.6797L19.7156 31.6785C19.1997 31.349 18.5346 31.349 18.0188 31.6785L0.733683 42.6797C0.286174 42.9719 0.0126953 43.4629 0.0126953 43.9974V62.855C0.0126953 63.3895 0.286174 63.8867 0.733683 64.1727ZM3.15769 44.8614L18.8703 34.867L34.5828 44.8614V61.991L28.2991 66V58.1437C28.2991 57.3108 27.9696 56.509 27.3792 55.9186C26.7887 55.3281 25.9869 54.9987 25.1541 54.9987H12.5865C11.7536 54.9987 10.9518 55.3281 10.3614 55.9186C9.7709 56.509 9.44148 57.3108 9.44148 58.1437V66L3.15769 61.991V44.8614Z" fill="#111111"/>
<path d="M23.5876 50.2811C23.5876 49.0318 23.0904 47.8322 22.2078 46.9496C21.3252 46.0671 20.1256 45.5698 18.8763 45.5698C17.627 45.5698 16.4274 46.0671 15.5449 46.9496C14.6623 47.8322 14.165 49.0318 14.165 50.2811C14.165 51.5304 14.6623 52.73 15.5449 53.6126C16.4274 54.4952 17.627 54.9924 18.8763 54.9924C20.1256 54.9924 21.3252 54.4952 22.2078 53.6126C23.0904 52.73 23.5876 51.5304 23.5876 50.2811Z" fill="#111111"/>
<path d="M93.5856 42.6734L76.3005 31.6721C75.7846 31.3427 75.1196 31.3427 74.6037 31.6721L57.3186 42.6734C56.8711 42.9655 56.5977 43.4565 56.5977 43.9911V62.8486C56.5977 63.3832 56.8711 63.8804 57.3186 64.1663L74.6037 75.1676C75.1196 75.497 75.7846 75.497 76.3005 75.1676L93.5856 64.1663C94.0331 63.8742 94.3066 63.3832 94.3066 62.8486V43.9911C94.3066 43.4628 94.0331 42.9655 93.5856 42.6734ZM91.1616 61.9909L84.8778 65.9998V58.1436C84.8778 57.3107 84.5484 56.5089 83.9579 55.9184C83.3674 55.328 82.5657 54.9986 81.7328 54.9986H69.159C68.3261 54.9986 67.5244 55.328 66.9339 55.9184C66.3434 56.5089 66.014 57.3107 66.014 58.1436V65.9998L59.7302 61.9909V44.8612L75.4428 34.8668L91.1554 44.8612V61.9909H91.1616Z" fill="#111111"/>
<path d="M80.1599 50.2811C80.1599 49.0318 79.6626 47.8322 78.7801 46.9496C77.8975 46.0671 76.6979 45.5698 75.4486 45.5698C74.1993 45.5698 72.9997 46.0671 72.1171 46.9496C71.2345 47.8322 70.7373 49.0318 70.7373 50.2811C70.7373 51.5304 71.2345 52.73 72.1171 53.6126C72.9997 54.4952 74.1993 54.9924 75.4486 54.9924C76.6979 54.9924 77.8975 54.4952 78.7801 53.6126C79.6626 52.73 80.1599 51.5304 80.1599 50.2811Z" fill="#111111"/>
<path d="M83.3052 86.43C83.3052 86.0135 83.1374 85.6158 82.8453 85.3174C82.5532 85.0253 82.1491 84.8575 81.7327 84.8575H77.0152V78.5737H73.8702V84.8575H69.1527C68.2826 84.8575 67.5802 85.5598 67.5802 86.43V88.0025H58.1514V86.43C58.1514 86.0135 57.9836 85.6158 57.6915 85.3174C57.3994 85.0253 56.9954 84.8575 56.5789 84.8575H48.7226V47.1423H45.5776V84.8575H37.7276C36.8574 84.8575 36.1551 85.5598 36.1551 86.43V88.0025H26.7263V86.43C26.7263 86.0135 26.5585 85.6158 26.2663 85.3174C25.9742 85.0253 25.5702 84.8575 25.1538 84.8575H20.4363V78.5737H17.2913V84.8575H12.5738C11.7036 84.8575 11.0013 85.5598 11.0013 86.43V88.0025H0V91.1475H11.0013V92.72C11.0013 93.1364 11.1691 93.5342 11.4612 93.8325C11.7534 94.1309 12.1574 94.2925 12.5738 94.2925H25.1476C25.564 94.2925 25.9618 94.1247 26.2601 93.8325C26.5585 93.5404 26.7201 93.1364 26.7201 92.72V91.1475H36.1489V92.72C36.1489 93.1364 36.3167 93.5342 36.6088 93.8325C36.9009 94.1309 37.3049 94.2925 37.7214 94.2925H56.5789C56.9954 94.2925 57.3932 94.1247 57.6915 93.8325C57.9836 93.5404 58.1514 93.1364 58.1514 92.72V91.1475H67.5802V92.72C67.5802 93.1364 67.748 93.5342 68.0402 93.8325C68.3323 94.1309 68.7363 94.2925 69.1527 94.2925H81.7265C82.1429 94.2925 82.5407 94.1247 82.8391 93.8325C83.1374 93.5404 83.299 93.1364 83.299 92.72V91.1475H94.3003V88.0025H83.299V86.43H83.3052Z" fill="#111111"/>
</svg>
