<svg width="30" height="30" viewBox="0 0 30 30" fill="none" xmlns="http://www.w3.org/2000/svg">
<path d="M12.9 17.7L9.6375 14.4375C9.3625 14.1625 9.025 14.025 8.625 14.025C8.225 14.025 7.875 14.175 7.575 14.475C7.3 14.75 7.1625 15.1 7.1625 15.525C7.1625 15.95 7.3 16.3 7.575 16.575L11.85 20.85C12.125 21.125 12.475 21.2625 12.9 21.2625C13.325 21.2625 13.675 21.125 13.95 20.85L22.4625 12.3375C22.7375 12.0625 22.875 11.725 22.875 11.325C22.875 10.925 22.725 10.575 22.425 10.275C22.15 10 21.8 9.8625 21.375 9.8625C20.95 9.8625 20.6 10 20.325 10.275L12.9 17.7ZM15 30C12.925 30 10.975 29.606 9.15 28.818C7.325 28.031 5.7375 26.9625 4.3875 25.6125C3.0375 24.2625 1.969 22.675 1.182 20.85C0.394 19.025 0 17.075 0 15C0 12.925 0.394 10.975 1.182 9.15C1.969 7.325 3.0375 5.7375 4.3875 4.3875C5.7375 3.0375 7.325 1.9685 9.15 1.1805C10.975 0.3935 12.925 0 15 0C17.075 0 19.025 0.3935 20.85 1.1805C22.675 1.9685 24.2625 3.0375 25.6125 4.3875C26.9625 5.7375 28.031 7.325 28.818 9.15C29.606 10.975 30 12.925 30 15C30 17.075 29.606 19.025 28.818 20.85C28.031 22.675 26.9625 24.2625 25.6125 25.6125C24.2625 26.9625 22.675 28.031 20.85 28.818C19.025 29.606 17.075 30 15 30Z" fill="#24D316"/>
</svg>
