<svg width="70" height="86" viewBox="0 0 70 86" fill="none" xmlns="http://www.w3.org/2000/svg">
<path d="M68.6502 11.9869L57.2891 0.626496C56.9316 0.268943 56.3943 0 55.7685 0H23.7432C22.5801 0 21.5961 0.984049 21.5961 2.14711V10.4662H13.277C12.1139 10.4662 11.1299 11.4503 11.1299 12.6133V36.4981C11.5773 36.4981 12.0247 36.5873 12.4715 36.7664L13.9029 37.2138L14.887 36.1405C15.066 35.9614 15.1553 35.8722 15.3344 35.6931V14.6709H21.507V35.5142C21.6861 35.6034 21.7753 35.7825 21.9544 35.9616L22.9385 37.0349L24.3699 36.5875C24.8173 36.4084 25.2647 36.3192 25.8013 36.3192L25.8007 4.29389H51.3852V15.655C51.3852 16.8181 52.3692 17.8021 53.5323 17.8021H64.8934V56.9839L37.162 56.9832C36.9829 57.2516 36.8044 57.4306 36.5355 57.6097L35.4622 58.5938L35.9096 60.0252C35.9988 60.3828 36.0887 60.8302 36.0887 61.1883H54.5166V67.361L35.6414 67.3603L37.6987 71.6541H56.7529C57.916 71.6541 58.9 70.67 58.9 69.507V61.1879H67.2191C68.3822 61.1879 69.3662 60.2038 69.3662 59.0408V13.5076C69.2763 12.8817 69.008 12.3451 68.6505 11.9869L68.6502 11.9869ZM55.7684 13.5076V5.09922L64.1774 13.5083L55.7684 13.5076Z" fill="#111111"/>
<path d="M35.4619 49.4693H55.9474C57.1105 49.4693 58.0945 48.4852 58.0945 47.3222C58.0945 46.1591 57.1104 45.175 55.9474 45.175L35.9092 45.1757C36.1775 46.0705 36.1775 47.0546 35.9092 47.9487L35.4619 49.4693Z" fill="#111111"/>
<path d="M34.8356 38.9134H55.9472C57.1103 38.9134 58.0943 37.9293 58.0943 36.7662C58.0943 35.6032 57.1103 34.6191 55.9472 34.6191H34.8356C33.6725 34.6191 32.6885 35.6032 32.6885 36.7662C32.6885 38.0186 33.6725 38.9134 34.8356 38.9134Z" fill="#111111"/>
<path d="M34.8356 28.3577H55.9472C57.1103 28.3577 58.0943 27.3736 58.0943 26.2106C58.0943 25.0475 57.1103 24.0635 55.9472 24.0635L34.8356 24.0641C33.6725 24.0641 32.6885 25.0481 32.6885 26.2112C32.6885 27.3737 33.6725 28.3577 34.8356 28.3577Z" fill="#111111"/>
<path d="M34.8356 17.8018H43.5128C44.676 17.8018 45.6599 16.8177 45.6599 15.6547C45.6599 14.4916 44.6759 13.5076 43.5128 13.5076H34.8356C33.6725 13.5076 32.6885 14.4916 32.6885 15.6547C32.6885 16.8177 33.6725 17.8018 34.8356 17.8018Z" fill="#111111"/>
<path d="M13.9927 71.0282L12.5613 71.4756C12.1139 71.6547 11.5772 71.7439 11.1298 71.7439C8.89342 71.7439 6.92538 70.134 6.47794 67.9867L6.12039 66.6445L0.126828 79.258C-0.32058 80.1528 0.484382 81.1369 1.46842 80.9578L5.49378 80.2421C6.03042 80.1529 6.56706 80.4212 6.83537 80.8686L8.8034 84.4465C9.25081 85.3413 10.5032 85.2515 10.9505 84.3573L16.2283 73.1753C15.7809 72.907 15.3334 72.6386 14.9759 72.1912L13.9927 71.0282Z" fill="#111111"/>
<path d="M30.8997 66.6448L30.6314 67.8971C30.184 70.0442 28.2159 71.6543 25.9795 71.6543C25.5321 71.6543 24.9955 71.5651 24.5481 71.386L23.0274 71.0284L22.0434 72.1017C21.6858 72.5491 21.2384 72.8174 20.791 73.0857L26.0688 84.2678C26.5162 85.1626 27.7686 85.2518 28.2159 84.357L30.1839 80.7791C30.4522 80.3317 30.9889 80.0633 31.5255 80.1526L35.5515 80.9581C36.5355 81.1372 37.2513 80.1532 36.8931 79.2583L30.8997 66.6448Z" fill="#111111"/>
<path d="M22.4017 66.6448L25.7115 67.7181C26.1589 67.8972 26.6955 67.539 26.7847 67.0916L27.5005 63.6921C27.5897 63.3346 27.858 63.1555 28.127 63.0656L31.5265 62.3499C31.9739 62.2607 32.3314 61.7234 32.153 61.2766L31.0791 57.8784C30.9898 57.6101 31.079 57.2519 31.3474 56.9836L33.9413 54.6579C34.2988 54.3003 34.2988 53.7631 33.9413 53.4055L31.3474 51.0798C31.079 50.9008 30.9898 50.5432 31.0791 50.185L32.1523 46.8753C32.3314 46.4279 31.9732 45.8913 31.5258 45.802L28.1263 45.0863C27.7688 44.9971 27.5897 44.7288 27.4998 44.4598L26.7841 41.0603C26.6949 40.6129 26.1576 40.2554 25.7108 40.4338L22.4011 41.5071C22.1328 41.5963 21.7746 41.5071 21.5063 41.2388L19.1806 38.6449C18.8231 38.2873 18.2858 38.2873 17.9283 38.6449L15.6026 41.2388C15.4235 41.5071 15.0659 41.5963 14.7077 41.5071L11.398 40.4345C10.9506 40.2554 10.414 40.6135 10.3247 41.061L9.60901 44.4604C9.51978 44.818 9.25146 44.9971 8.98251 45.0869L5.58302 45.8027C5.13561 45.8919 4.77806 46.4292 4.95653 46.876L6.02981 50.1857C6.11904 50.454 6.02981 50.8122 5.76149 51.0805L3.16758 53.4062C2.81003 53.7637 2.81003 54.301 3.16758 54.6585L5.76149 56.9842C6.02981 57.1633 6.11904 57.5209 6.02981 57.8791L4.95653 61.1888C4.77744 61.6362 5.13561 62.1728 5.58302 62.2621L8.98251 62.9778C9.34007 63.067 9.51915 63.3353 9.60901 63.6043L10.3247 67.0038C10.414 67.4512 10.9512 67.8087 11.398 67.6303L14.7077 66.557C14.9761 66.4678 15.3342 66.557 15.6026 66.8253L17.9283 69.4192C18.2858 69.7768 18.8231 69.7768 19.1806 69.4192L21.5063 66.8253C21.686 66.5557 22.0436 66.4658 22.4017 66.6448ZM18.1074 58.9516C17.7498 59.3092 17.2126 59.4883 16.6759 59.4883C16.1393 59.4883 15.6919 59.3092 15.2445 58.9516L11.7557 55.4628C10.9507 54.6579 10.9507 53.4055 11.7557 52.6898C12.5607 51.8849 13.813 51.8849 14.5287 52.6898L16.6758 54.837L22.401 49.1118C23.2059 48.3068 24.4583 48.3068 25.174 49.1118C25.9789 49.9167 25.9789 51.1691 25.174 51.8847L18.1074 58.9516Z" fill="#111111"/>
</svg>
