<svg width="56" height="76" viewBox="0 0 56 76" fill="none" xmlns="http://www.w3.org/2000/svg">
<path d="M13.7346 11.709H4.58203V71.2726H35.7444V56.0679H50.9093V11.7104H41.7879V12.5593C41.7879 14.3203 40.3595 15.7511 38.6013 15.7511H16.9214C15.1633 15.7511 13.7348 14.3203 13.7348 12.5593L13.7346 11.709ZM19.5818 54.0673C19.5818 54.7155 19.0573 55.2409 18.4101 55.2409H11.867C11.2198 55.2409 10.6953 54.7155 10.6953 54.0673V47.5137C10.6953 46.8655 11.2198 46.3401 11.867 46.3401H18.4101C19.0573 46.3401 19.5818 46.8655 19.5818 47.5137V54.0673ZM19.5818 39.8173C19.5818 40.4655 19.0573 40.9909 18.4101 40.9909H11.867C11.2198 40.9909 10.6953 40.4655 10.6953 39.8173V33.2637C10.6953 32.6155 11.2198 32.0901 11.867 32.0901H18.4101C19.0573 32.0901 19.5818 32.6155 19.5818 33.2637V39.8173ZM25.1267 21.121H44.7953V23.4798H25.1267V21.121ZM25.1267 35.3724H44.7953V37.7312L25.1267 37.7306V35.3724ZM25.1267 49.6224H44.7953V51.9812H25.1267V49.6224ZM18.4101 17.8386C19.0573 17.8386 19.5819 18.364 19.5819 19.0122V25.5658C19.5819 26.2135 19.0573 26.7394 18.4101 26.7394H11.867C11.2199 26.7394 10.6953 26.214 10.6953 25.5658V19.0122C10.6953 18.364 11.2199 17.8386 11.867 17.8386H18.4101Z" fill="#111111"/>
<path d="M38.1816 71.2727L50.9089 58.0364H38.1816V71.2727Z" fill="#111111"/>
<path d="M54.3121 6.61849H42.1151V8.95553H53.65V73.3743H40.7744V73.5164L2.35094 73.5169V8.95577H13.9173V6.61873H1.68836C0.757198 6.61873 0 7.36121 0 8.29262V74.1806C0 75.0966 0.757255 75.8545 1.68836 75.8545H54.3116C55.2428 75.8545 56 75.0966 56 74.1806V8.29262C55.9995 7.36065 55.2422 6.61816 54.3116 6.61816L54.3121 6.61849Z" fill="#111111"/>
<path d="M17.1282 13.2364H38.8727C39.3346 13.2364 39.7092 12.8597 39.7092 12.3953V6.224C39.7092 5.75955 39.3346 5.38293 38.8727 5.38293H32.2759V4.30605C32.2759 3.11873 31.8195 2.04179 31.0318 1.26593C30.3079 0.537519 29.3433 0.0774996 28.2745 0.00846624C25.7688 -0.153889 23.7084 2.04243 23.7084 4.56668V5.38289H17.1276C16.6656 5.38289 16.291 5.75953 16.291 6.22396V12.3953C16.291 12.8597 16.6656 13.2363 17.1276 13.2363L17.1282 13.2364Z" fill="#111111"/>
</svg>
